<svg width="0" height="0" class="hidden">
  <symbol xmlns="http://www.w3.org/2000/svg" viewBox="0 0 69 69" id="icons">
    <path fill-rule="evenodd" fill="#FFF" d="M67.718 19.516l-31.076 32.23H17.24V32.343L49.471 1.267A4.288 4.288 0 0152.513.008c1.1 0 2.201.419 3.041 1.259l12.165 12.166a4.302 4.302 0 01-.001 6.083zm-15.26-9.15L25.863 36.008v7.115h7.115L58.62 16.529l-6.162-6.163zM21.551 8.63H10.773a2.156 2.156 0 00-2.156 2.156v47.427c0 1.191.965 2.157 2.156 2.157h47.426a2.157 2.157 0 002.156-2.157V47.434a4.312 4.312 0 018.623 0V64.68a4.312 4.312 0 01-4.311 4.313H4.305A4.312 4.312 0 01-.006 64.68V4.318A4.312 4.312 0 014.305.006h17.246a4.312 4.312 0 110 8.624z"></path>
  </symbol>
</svg>